<svg version="1.1" id="Layer_1" xmlns="http://www.w3.org/2000/svg" xmlns:xlink="http://www.w3.org/1999/xlink" x="0px" y="0px"
	 width="100%" viewBox="0 0 608 608" enable-background="new 0 0 608 608" xml:space="preserve">
<path fill="#000000" opacity="1.000000" stroke="none" 
	d="
M517.501709,228.265625 
	C521.869690,227.646912 525.810608,226.963074 529.776794,226.749573 
	C533.535400,226.547241 533.956970,228.819519 532.508606,231.651047 
	C531.513916,233.595581 529.855286,235.060089 528.082642,236.338272 
	C511.317505,248.427094 497.857880,263.811493 484.815857,279.626587 
	C471.708984,295.520355 460.924744,313.046112 449.770538,330.264435 
	C441.231415,343.446045 434.073853,357.523163 426.328247,371.216980 
	C425.852386,372.058258 425.561035,373.015778 425.265625,373.945221 
	C423.985291,377.973511 421.371399,379.031616 417.516968,377.547272 
	C412.250610,375.519257 408.332153,371.607513 404.137695,368.074615 
	C399.555695,364.215271 394.908813,360.430817 390.394165,356.494537 
	C387.571228,354.033264 385.583893,354.219910 382.926514,357.129456 
	C373.945679,366.962341 364.645935,376.503906 355.464569,386.153534 
	C354.422180,387.249084 353.352631,388.429718 351.637787,388.035400 
	C349.769135,387.605774 349.772339,385.909149 349.502350,384.461700 
	C346.885345,370.432434 344.429840,356.370728 341.608276,342.382812 
	C340.067230,334.743195 338.161224,327.153442 335.943146,319.682709 
	C334.514435,314.870605 330.519714,311.805573 326.566193,308.960693 
	C320.959076,304.925903 314.579956,302.466309 308.141449,300.172577 
	C301.711884,297.882019 295.241394,295.709686 289.068756,292.757385 
	C286.962646,291.750092 284.395477,290.986755 284.587036,288.096832 
	C284.763092,285.440460 287.303223,284.889740 289.329498,284.317810 
	C307.072174,279.309631 324.803497,274.255066 342.606750,269.469177 
	C364.564362,263.566528 386.520294,257.633820 408.599030,252.211151 
	C438.589905,244.845169 468.755371,238.214432 499.010651,232.008911 
	C505.028778,230.774551 511.060303,229.605270 517.501709,228.265625 
M417.216583,295.759827 
	C399.646606,306.808777 383.427643,319.686768 366.234009,332.648529 
	C367.636017,333.671997 368.378998,334.366089 369.246582,334.824249 
	C378.395630,339.655640 386.451050,346.109558 394.839233,352.063812 
	C402.005371,357.150543 409.067535,362.383575 416.196228,367.523407 
	C418.223602,368.985138 420.185547,369.435944 421.471008,366.593719 
	C425.252533,358.232483 430.362885,350.621460 434.902618,342.687256 
	C454.474304,308.481262 476.268005,275.943207 504.920898,248.474304 
	C506.727203,246.742630 509.370667,245.151596 509.391388,240.943192 
	C478.202881,259.027710 447.460297,276.252899 417.216583,295.759827 
M389.851898,284.294098 
	C415.568207,271.418518 442.152039,260.498291 468.660431,249.414139 
	C471.924896,248.049133 474.803711,246.299515 477.661072,243.554291 
	C416.023438,256.366760 355.519989,271.891907 294.614960,288.178375 
	C298.890900,291.595367 303.572357,292.396698 307.815704,294.179352 
	C317.064697,298.064941 327.153931,300.283356 334.311310,308.294617 
	C336.062195,310.254425 338.977051,310.632629 341.616547,308.626312 
	C343.723267,307.024933 346.021271,305.643829 348.343048,304.361725 
	C361.596497,297.042908 375.363312,290.782135 389.851898,284.294098 
M379.684326,353.428833 
	C380.748108,352.294067 381.975006,350.873810 380.392426,349.602539 
	C374.773499,345.088684 368.990662,340.778900 363.197998,336.336670 
	C362.518585,337.343658 362.066864,337.719177 362.001953,338.152618 
	C360.540436,347.912445 360.302155,357.857422 357.416260,367.408295 
	C357.000824,368.783264 357.241028,370.536957 358.927307,371.277374 
	C360.890961,372.139587 362.084320,370.754883 363.100983,369.428650 
	C367.690491,363.441406 373.180786,358.392761 379.684326,353.428833 
M351.872986,314.226257 
	C351.359680,312.414551 351.408661,309.597839 348.655151,310.311401 
	C346.438751,310.885834 347.286011,313.451141 347.551971,315.139465 
	C348.352448,320.220123 348.681732,325.387390 349.545288,330.409027 
	C350.647675,336.819489 353.087585,342.999969 355.057953,349.639984 
	C357.442657,345.340179 352.685425,342.473419 354.100677,338.643616 
	C355.158081,335.782196 354.697968,332.792328 353.834869,329.828278 
	C352.436157,325.024902 351.545746,320.115753 351.872986,314.226257 
M375.817383,313.118744 
	C373.925110,308.327118 376.047424,302.679443 373.121490,298.002502 
	C370.687561,298.765717 368.881775,300.277435 369.677521,302.019897 
	C371.611298,306.254303 370.767548,310.827209 371.993439,315.080963 
	C372.406494,316.514313 372.007629,318.987213 374.548187,318.370331 
	C376.889374,317.801758 376.555603,315.734344 375.817383,313.118744 
M367.111847,323.938202 
	C368.156097,316.701813 367.386780,309.765442 364.440826,302.395721 
	C359.417236,307.564484 363.955414,311.833466 363.976379,316.085144 
	C363.988708,318.582306 362.398743,322.615692 367.111847,323.938202 
M421.473938,285.503693 
	C425.713715,282.218384 425.914703,279.710144 422.304810,274.705505 
	C419.285065,274.846558 418.012817,276.805450 417.454407,279.464600 
	C416.837738,282.400940 418.289551,284.211365 421.473938,285.503693 
M404.844696,291.012939 
	C404.786407,289.850037 404.761017,288.684357 404.661957,287.524933 
	C404.524017,285.910370 404.743103,283.741638 402.361938,283.894135 
	C399.913696,284.050964 399.100800,285.883301 399.501221,288.230286 
	C399.752686,289.704529 400.026703,291.175446 400.246979,292.654358 
	C400.525604,294.524963 399.921814,297.447937 402.738495,297.195557 
	C405.761353,296.924713 405.869751,294.287659 404.844696,291.012939 
M380.774078,295.763214 
	C378.491699,294.802185 378.266541,297.796570 378.303467,297.893555 
	C380.071655,302.535248 379.815735,307.655060 381.896698,312.314697 
	C384.490997,306.810822 382.505096,301.571838 380.774078,295.763214 
M414.397766,283.366089 
	C413.816345,281.727600 413.791779,279.319977 411.182587,279.864380 
	C409.084290,280.302185 409.373444,282.353760 409.345215,283.999481 
	C409.325256,285.161682 409.357971,286.324707 409.361206,287.487366 
	C409.365631,289.087677 409.624786,290.620453 411.590820,290.758209 
	C413.707947,290.906616 414.526825,289.528809 414.590179,287.621674 
	C414.628693,286.462677 414.536926,285.299347 414.397766,283.366089 
M360.529480,326.321869 
	C357.270874,320.559906 360.893372,313.318024 356.647430,307.746704 
	C356.256104,315.157257 357.500366,322.356079 358.442108,329.611145 
	C360.544098,329.405884 360.487885,328.167236 360.529480,326.321869 
M352.180939,369.099182 
	C352.376862,369.361694 352.011230,370.275055 352.896729,369.725800 
	C353.020782,369.648865 353.061523,369.444336 353.152832,369.306854 
	C354.637787,367.070953 354.965302,364.788391 353.695221,362.296997 
	C352.287842,359.536163 351.018982,356.704712 349.257172,352.992371 
	C349.738129,358.919067 350.615997,363.785370 352.180939,369.099182 
M395.925354,294.548309 
	C395.369049,292.502319 395.485870,290.054077 392.217224,288.519653 
	C392.920380,293.377136 392.686737,297.542053 394.961731,301.953979 
	C397.300903,299.421936 396.437286,297.324921 395.925354,294.548309 
M430.665497,270.794037 
	C427.024872,272.796814 429.238770,275.555817 429.953644,277.920380 
	C430.264496,278.948547 431.727814,278.564148 432.423492,277.784424 
	C434.356293,275.617981 433.396027,273.581268 431.943268,271.633423 
	C431.751923,271.376892 431.483917,271.177460 430.665497,270.794037 
M441.151123,268.523315 
	C440.308228,267.462036 439.305206,266.188904 438.030396,267.680328 
	C436.762939,269.163208 437.051941,271.098938 437.830780,272.760437 
	C438.308655,273.779846 439.509766,273.816559 440.429565,273.372864 
	C442.437714,272.404236 442.954224,270.929504 441.151123,268.523315 
M387.815857,299.261719 
	C387.545013,297.168915 387.646362,295.001282 386.335846,293.124908 
	C387.745483,297.386932 386.100311,302.353271 389.300842,307.210938 
	C390.977020,303.585846 387.914001,302.212555 387.815857,299.261719 
M445.602295,266.689453 
	C446.255615,268.092834 447.289307,268.840088 448.747253,267.974274 
	C449.967865,267.249420 449.788666,266.014069 449.270111,264.887604 
	C448.876495,264.032532 448.700745,262.882874 447.296295,263.097290 
	C445.431641,263.381927 445.598480,264.798523 445.602295,266.689453 
M464.203583,259.744781 
	C466.069733,259.347900 466.863953,258.341949 465.698853,256.605835 
	C464.576538,254.933517 463.201477,255.996155 462.379578,256.839386 
	C460.872009,258.386108 461.484650,259.468109 464.203583,259.744781 
z"/>
<path fill="#000000" opacity="1.000000" stroke="none" 
	d="
M158.464935,295.529663 
	C161.691757,290.524170 165.609344,286.721222 170.392136,283.843781 
	C172.148697,282.786987 174.220093,281.822998 175.638351,284.156250 
	C176.918610,286.262512 175.209274,287.439789 173.662262,288.561951 
	C167.825790,292.795685 162.841995,297.640656 159.705536,304.419861 
	C156.272552,311.839966 155.754105,319.370392 156.856400,327.248962 
	C157.228928,329.911591 158.831314,333.711456 155.341858,334.669495 
	C151.201584,335.806274 151.509598,331.275970 150.931915,328.891571 
	C147.987839,316.739807 151.627213,305.926483 158.464935,295.529663 
z"/>
<path fill="#000000" opacity="1.000000" stroke="none" 
	d="
M195.194122,273.690430 
	C202.626099,274.836914 209.294800,277.272064 213.860672,282.725250 
	C218.064880,287.746460 222.184631,293.318817 221.319611,300.656952 
	C221.110535,302.430603 222.260345,305.222992 219.169373,305.323608 
	C216.342438,305.415619 216.025833,302.858917 215.761856,300.679810 
	C215.251770,296.469116 213.929901,292.618256 211.101501,289.358582 
	C205.349823,282.729889 198.485580,278.727264 189.336777,279.914001 
	C187.237473,280.186310 185.091583,279.950653 184.588058,277.466187 
	C184.020401,274.665253 186.462204,274.174957 188.336151,273.853760 
	C190.436951,273.493622 192.634079,273.695374 195.194122,273.690430 
z"/>
<path fill="#000000" opacity="1.000000" stroke="none" 
	d="
M95.423004,189.500244 
	C94.258575,189.153931 93.473000,188.875092 92.665192,188.697235 
	C90.368034,188.191483 87.469582,187.805191 88.222931,184.648071 
	C88.961655,181.552200 92.181030,182.328766 94.154762,182.826508 
	C104.960106,185.551453 113.644432,190.675156 117.768753,202.126175 
	C119.208160,206.122650 121.361183,209.772141 121.317848,214.173569 
	C121.299126,216.074493 121.198753,218.033920 118.750488,218.284378 
	C116.282402,218.536865 115.899071,216.811813 115.612129,214.793533 
	C113.877838,202.595108 107.409012,194.062790 95.423004,189.500244 
z"/>
<path fill="#000000" opacity="1.000000" stroke="none" 
	d="
M193.082718,397.586548 
	C191.721954,399.661346 190.284561,398.735077 188.946152,398.217712 
	C176.712250,393.488647 168.127472,384.866272 162.558929,373.149811 
	C161.536926,370.999481 159.947769,368.039032 163.082413,366.607513 
	C166.439072,365.074646 167.562286,368.139404 168.622620,370.632904 
	C172.746780,380.331238 179.905823,387.104034 189.379288,391.338776 
	C192.257263,392.625275 193.834427,393.986481 193.082718,397.586548 
z"/>
<path fill="#000000" opacity="1.000000" stroke="none" 
	d="
M180.748108,354.106293 
	C180.425125,357.797150 177.944962,358.210358 175.346237,358.250061 
	C162.785538,358.441864 151.926407,354.209839 142.764664,345.605469 
	C141.045242,343.990631 139.696793,342.045227 141.498672,340.007355 
	C143.622681,337.605072 146.029999,339.233185 147.528870,340.926544 
	C154.804871,349.146790 164.484650,351.178101 174.717468,351.975311 
	C176.806824,352.138092 179.135651,351.519958 180.748108,354.106293 
z"/>
<path fill="#000000" opacity="1.000000" stroke="none" 
	d="
M199.919830,340.973267 
	C208.833221,335.697449 215.044617,328.571747 218.778503,319.271759 
	C219.583878,317.265808 220.662323,314.821686 223.413483,315.957489 
	C226.526428,317.242706 225.265366,319.838928 224.261566,321.912079 
	C219.088882,332.595123 211.983398,341.554291 201.139694,347.008148 
	C198.889221,348.139984 195.961823,350.528778 194.263412,347.050995 
	C192.747620,343.947174 196.227951,343.099609 198.302307,341.898621 
	C198.734207,341.648560 199.172104,341.408905 199.919830,340.973267 
z"/>
<path fill="#000000" opacity="1.000000" stroke="none" 
	d="
M121.386627,315.513733 
	C124.289154,319.915985 124.638046,325.214050 128.380692,328.862091 
	C129.940964,330.382935 130.164398,333.185883 128.207489,334.683624 
	C126.112915,336.286652 124.608566,334.355652 123.349464,332.709656 
	C116.312019,323.509644 113.704430,312.824768 112.895737,301.540527 
	C112.836716,300.716949 112.853905,299.856781 113.025444,299.054169 
	C113.415939,297.226929 114.000229,295.156525 116.204132,295.167419 
	C118.670334,295.179596 119.455269,297.101685 119.313622,299.366425 
	C118.976921,304.749695 120.400909,309.901581 121.386627,315.513733 
z"/>
<path fill="#000000" opacity="1.000000" stroke="none" 
	d="
M240.191589,404.679047 
	C243.650757,404.688324 246.634262,404.696777 249.617783,404.706604 
	C251.614822,404.713196 253.225861,405.082642 253.267883,407.646606 
	C253.307495,410.064026 251.835297,410.906799 249.862030,411.060272 
	C241.201447,411.733795 232.667130,410.766266 224.256836,408.719208 
	C222.508636,408.293732 220.421951,407.506989 221.089737,405.102325 
	C221.743973,402.746460 223.954666,402.477844 225.990524,402.814270 
	C230.550156,403.567657 235.058121,404.656464 240.191589,404.679047 
z"/>
<path fill="#000000" opacity="1.000000" stroke="none" 
	d="
M120.098183,248.858902 
	C120.060448,245.737259 119.886322,243.074341 120.037186,240.429932 
	C120.127197,238.852280 120.966347,237.568039 122.919739,237.705612 
	C124.569405,237.821793 125.313240,238.830658 125.267227,240.346313 
	C124.980629,249.788986 126.320465,259.278931 124.454872,268.675903 
	C123.980484,271.065399 123.370895,273.692474 120.177971,272.773315 
	C117.207397,271.918152 117.729797,269.414215 118.311035,266.973450 
	C119.690102,261.182312 121.086151,255.366837 120.098183,248.858902 
z"/>
<path fill="#000000" opacity="1.000000" stroke="none" 
	d="
M294.647400,397.593079 
	C295.662354,397.304779 296.270416,397.012512 296.911621,396.856445 
	C298.445526,396.483093 300.318604,395.361542 301.081757,397.763306 
	C301.777435,399.952576 301.000916,401.626099 298.607208,402.390778 
	C292.122620,404.462250 285.659546,406.600983 279.185883,408.706879 
	C277.518951,409.249146 275.708313,409.631989 274.988556,407.517334 
	C274.195282,405.186798 275.550934,403.622528 277.659119,402.920959 
	C283.166016,401.088409 288.720245,399.398071 294.647400,397.593079 
z"/>
<path fill="#000000" opacity="1.000000" stroke="none" 
	d="
M333.910492,388.729492 
	C335.928894,389.494293 337.507904,390.287201 336.746155,392.440704 
	C336.132538,394.175598 334.630981,395.341034 332.869568,394.918915 
	C328.285278,393.820282 323.969971,394.763855 319.614075,395.979095 
	C317.938354,396.446625 316.149414,396.551147 315.423492,394.490540 
	C314.623230,392.218750 316.098053,390.976562 317.967377,390.391235 
	C323.021698,388.808685 328.062286,386.807648 333.910492,388.729492 
z"/>
</svg>